<?xml version="1.0" encoding="UTF-8"?>
<svg width="381px" height="109px" viewBox="0 0 381 109" version="1.1" xmlns="http://www.w3.org/2000/svg" xmlns:xlink="http://www.w3.org/1999/xlink">
    <!-- Generator: Sketch 57.1 (83088) - https://sketch.com -->
    <title>Group 239</title>
    <desc>Created with Sketch.</desc>
    <g id="Page-1" stroke="none" stroke-width="1" fill="none" fill-rule="evenodd">
        <g id="APPA-Member-Logo" transform="translate(-20.000000, -16.000000)">
            <g id="Group-239" transform="translate(20.000000, 15.934000)">
                <text id="MEMBER" font-family="LucidaGrande, Lucida Grande" font-size="17.825" font-weight="normal" fill="#B01C33">
                    <tspan x="159.4258" y="90.0646848">MEMBER</tspan>
                </text>
                <path d="M76.1294,106.729 C32.7194,112.646 9.9794,103.77 5.2544,96.123 C0.8994,89.08 0.8244,72.201 0.8244,64.776 C0.8244,57.352 0.8994,40.451 5.2484,32.222 C9.9734,23.279 32.7194,8.198 76.1294,2.274 C119.5444,-3.648 142.2794,5.233 147.0074,12.884 C151.3644,19.927 151.4374,36.803 151.4374,44.23 C151.4374,51.655 151.3644,68.553 147.0134,76.785 C142.2854,85.728 119.5444,100.809 76.1294,106.729" id="Fill-192" fill="#B01C33"></path>
                <path d="M169.8848,41.8633 C169.8258,41.0533 169.8648,40.4003 169.8648,40.4003 L169.8258,40.4003 C169.8258,40.4003 169.6698,41.0533 169.2618,41.8633 L167.3108,45.8233 L170.1418,45.8233 L169.8848,41.8633 Z M170.3958,50.0503 L170.1808,47.4593 L166.5498,47.4593 L165.2378,50.0503 L162.5638,50.0503 L168.9968,37.9413 L171.7998,37.9413 L173.2148,50.0503 L170.3958,50.0503 Z" id="Fill-193" fill="#484948"></path>
                <path d="M182.4814,46.477 C181.9994,48.83 180.0204,50.223 177.5774,50.223 C175.4834,50.223 173.9884,49.115 173.9884,47.248 C173.9884,46.979 174.0244,46.72 174.0744,46.435 L175.8354,37.941 L178.6884,37.941 L176.9414,46.418 C176.9044,46.617 176.8714,46.809 176.8714,46.971 C176.8714,47.685 177.3124,48.046 177.9994,48.046 C178.9034,48.046 179.6544,47.477 179.8714,46.418 L181.6024,37.941 L184.2714,37.941 L182.4814,46.477 Z" id="Fill-194" fill="#484948"></path>
                <path d="M190.917,40.1684 C190.563,39.9484 189.984,39.7164 189.245,39.7164 C188.067,39.7164 187.428,40.6184 187.428,41.5144 C187.428,43.1834 190.69,43.1644 190.69,45.8404 C190.69,47.6024 189.446,50.2224 185.868,50.2224 C184.438,50.2224 183.383,49.9634 182.766,49.5164 L183.808,47.6324 C184.123,47.8674 184.768,48.1154 185.549,48.1154 C186.73,48.1154 187.589,47.3364 187.589,46.2454 C187.589,44.6064 184.584,44.6064 184.584,41.9724 C184.584,40.2134 185.937,37.7654 189.119,37.7654 C190.367,37.7654 191.266,38.0644 191.866,38.4684 L190.917,40.1684 Z" id="Fill-195" fill="#484948"></path>
                <polygon id="Fill-196" fill="#484948" points="199.581 39.8589 197.501 39.8589 195.402 50.0499 192.53 50.0499 194.644 39.8589 192.563 39.8589 192.949 37.9419 199.975 37.9419"></polygon>
                <path d="M204.4238,39.3955 C204.0498,39.3955 203.7708,39.4575 203.5028,39.5405 L202.6068,43.9225 C202.7328,43.9595 202.9808,43.9925 203.2458,43.9925 C204.1058,43.9925 204.8228,43.6605 205.3278,43.0605 C205.7938,42.4625 206.0308,41.5445 206.0308,40.7915 C206.0308,39.8585 205.5348,39.3955 204.4238,39.3955 M207.9098,43.2705 C207.1848,44.0985 206.1678,44.6265 205.2198,44.7355 L205.2198,44.7715 L207.3608,50.0495 L204.3198,50.0495 L202.4888,44.6485 L202.4528,44.6485 L201.3278,50.0495 L198.5238,50.0495 L200.9118,38.4685 C201.9428,38.0275 203.2148,37.7655 204.6668,37.7655 C207.4638,37.7655 208.8428,38.9655 208.8428,40.7385 C208.8428,41.6675 208.5048,42.5665 207.9098,43.2705" id="Fill-197" fill="#484948"></path>
                <path d="M214.7402,41.8633 C214.6952,41.0533 214.7202,40.4003 214.7202,40.4003 L214.6952,40.4003 C214.6952,40.4003 214.5222,41.0533 214.1322,41.8633 L212.1722,45.8233 L215.0082,45.8233 L214.7402,41.8633 Z M215.2482,50.0503 L215.0302,47.4593 L211.4162,47.4593 L210.0982,50.0503 L207.4222,50.0503 L213.8692,37.9413 L216.6492,37.9413 L218.0612,50.0503 L215.2482,50.0503 Z" id="Fill-198" fill="#484948"></path>
                <polygon id="Fill-199" fill="#484948" points="224.5127 50.0498 218.5777 50.0498 221.0877 37.9418 223.9407 37.9418 221.8387 48.1318 224.9137 48.1318"></polygon>
                <path d="M232.2558,41.8633 C232.1988,41.0533 232.2338,40.4003 232.2338,40.4003 L232.1988,40.4003 C232.1988,40.4003 232.0348,41.0533 231.6358,41.8633 L229.6878,45.8233 L232.5118,45.8233 L232.2558,41.8633 Z M232.7608,50.0503 L232.5488,47.4593 L228.9278,47.4593 L227.6058,50.0503 L224.9288,50.0503 L231.3728,37.9413 L234.1698,37.9413 L235.5828,50.0503 L232.7608,50.0503 Z" id="Fill-200" fill="#484948"></path>
                <path d="M244.249,40.1684 C243.897,39.9484 243.314,39.7164 242.583,39.7164 C241.399,39.7164 240.769,40.6184 240.769,41.5144 C240.769,43.1834 244.02,43.1644 244.02,45.8404 C244.02,47.6024 242.778,50.2224 239.2,50.2224 C237.77,50.2224 236.719,49.9634 236.099,49.5164 L237.143,47.6324 C237.455,47.8674 238.108,48.1154 238.888,48.1154 C240.062,48.1154 240.922,47.3364 240.922,46.2454 C240.922,44.6064 237.916,44.6064 237.916,41.9724 C237.916,40.2134 239.272,37.7654 242.455,37.7654 C243.711,37.7654 244.599,38.0644 245.198,38.4684 L244.249,40.1684 Z" id="Fill-201" fill="#484948"></path>
                <polygon id="Fill-202" fill="#484948" points="247.2168 50.0498 244.3528 50.0498 246.8508 37.9418 249.7198 37.9418"></polygon>
                <path d="M255.3945,41.8633 C255.3415,41.0533 255.3745,40.4003 255.3745,40.4003 L255.3415,40.4003 C255.3415,40.4003 255.1795,41.0533 254.7755,41.8633 L252.8275,45.8233 L255.6545,45.8233 L255.3945,41.8633 Z M255.8975,50.0503 L255.6905,47.4593 L252.0655,47.4593 L250.7445,50.0503 L248.0795,50.0503 L254.5125,37.9413 L257.3065,37.9413 L258.7215,50.0503 L255.8975,50.0503 Z" id="Fill-203" fill="#484948"></path>
                <path d="M268.7177,50.0498 L266.6297,50.0498 L263.9807,43.2498 C263.7387,42.6168 263.5757,41.9878 263.5757,41.9878 L263.5477,41.9878 C263.5477,41.9878 263.4697,42.6358 263.3297,43.3058 L261.9487,50.0498 L259.5537,50.0498 L262.0487,37.9418 L264.4807,37.9418 L266.9227,44.1348 C267.1737,44.7498 267.3267,45.3078 267.3267,45.3078 L267.3617,45.3078 C267.3617,45.3078 267.4397,44.7358 267.5597,44.0988 L268.8227,37.9418 L271.2187,37.9418 L268.7177,50.0498 Z" id="Fill-204" fill="#484948"></path>
                <path d="M283.7099,39.3813 C283.3379,39.3813 282.9389,39.4573 282.7459,39.5243 L281.8699,43.8363 C282.0679,43.8693 282.3059,43.8693 282.5339,43.8693 C283.6309,43.8693 284.3099,43.4993 284.7359,42.7613 C285.0459,42.2343 285.2529,41.3663 285.2529,40.7553 C285.2529,39.8733 284.8099,39.3813 283.7099,39.3813 M286.8439,43.8363 C285.9449,44.8913 284.5219,45.5453 282.4469,45.5453 C282.1299,45.5453 281.8139,45.5223 281.5159,45.4883 L280.5769,50.0493 L277.7859,50.0493 L280.1789,38.4683 C281.1449,38.0423 282.4279,37.7653 283.9749,37.7653 C286.7939,37.7653 287.9689,39.0633 287.9689,40.7743 C287.9689,41.8463 287.5299,43.0273 286.8439,43.8363" id="Fill-205" fill="#484948"></path>
                <path d="M293.2695,39.3955 C292.9015,39.3955 292.6245,39.4575 292.3565,39.5405 L291.4555,43.9285 C291.5815,43.9595 291.8325,43.9925 292.0885,43.9925 C292.9575,43.9925 293.6735,43.6605 294.1655,43.0575 C294.6425,42.4625 294.8855,41.5445 294.8855,40.7915 C294.8855,39.8585 294.3795,39.3955 293.2695,39.3955 M296.7525,43.2705 C296.0335,44.0985 295.0085,44.6265 294.0595,44.7355 L294.0595,44.7715 L296.2115,50.0495 L293.1635,50.0495 L291.3275,44.6485 L291.3015,44.6485 L290.1795,50.0495 L287.3695,50.0495 L289.7665,38.4685 C290.7885,38.0275 292.0575,37.7655 293.5175,37.7655 C296.3145,37.7655 297.6905,38.9605 297.6905,40.7385 C297.6905,41.6675 297.3555,42.5715 296.7525,43.2705" id="Fill-206" fill="#484948"></path>
                <path d="M303.792,39.6469 C302.919,39.6469 302.294,40.4229 301.808,41.4609 C301.244,42.6359 300.642,45.0139 300.642,46.3679 C300.642,47.3729 300.956,48.1099 301.911,48.1099 C302.808,48.1099 303.427,47.3389 303.901,46.2649 C304.443,45.0279 305.01,42.6919 305.01,41.3859 C305.01,40.3839 304.708,39.6469 303.792,39.6469 M305.922,48.0459 C304.937,49.3739 303.53,50.2229 301.629,50.2229 C299.064,50.2229 297.847,48.4839 297.847,45.9659 C297.847,43.9929 298.584,41.5139 299.742,39.9619 C300.77,38.6249 302.174,37.7659 304.019,37.7659 C306.679,37.7659 307.762,39.5409 307.762,41.9299 C307.762,43.8869 307.063,46.4769 305.922,48.0459" id="Fill-207" fill="#484948"></path>
                <path d="M319.8593,50.0498 L317.2413,50.0498 L318.1033,42.9878 C318.1873,42.2348 318.3403,41.4778 318.3403,41.4778 L318.2983,41.4778 C318.2983,41.4778 318.0553,42.2168 317.6593,42.9878 L314.1233,50.0498 L312.6993,50.0498 L312.0883,42.9878 C312.0153,42.2168 312.0153,41.4778 312.0153,41.4778 L311.9793,41.4778 C311.9793,41.4778 311.8953,42.2168 311.6553,42.9878 L309.5873,50.0498 L307.1593,50.0498 L310.9403,37.9418 L313.7433,37.9418 L314.2283,44.8718 C314.2853,45.5748 314.2483,46.1758 314.2483,46.1758 L314.2853,46.1758 C314.2853,46.1758 314.4833,45.5748 314.8323,44.8718 L318.2983,37.9418 L321.0763,37.9418 L319.8593,50.0498 Z" id="Fill-208" fill="#484948"></path>
                <path d="M327.5576,39.6469 C326.6746,39.6469 326.0636,40.4229 325.5616,41.4609 C325.0086,42.6359 324.4116,45.0139 324.4116,46.3679 C324.4116,47.3729 324.7246,48.1099 325.6756,48.1099 C326.5696,48.1099 327.1916,47.3389 327.6656,46.2649 C328.2126,45.0279 328.7746,42.6919 328.7746,41.3859 C328.7746,40.3839 328.4726,39.6469 327.5576,39.6469 M329.6896,48.0459 C328.7026,49.3739 327.2916,50.2229 325.3936,50.2229 C322.8236,50.2229 321.6146,48.4839 321.6146,45.9659 C321.6146,43.9929 322.3456,41.5139 323.5126,39.9619 C324.5346,38.6249 325.9356,37.7659 327.7836,37.7659 C330.4526,37.7659 331.5266,39.5409 331.5266,41.9299 C331.5266,43.8869 330.8286,46.4769 329.6896,48.0459" id="Fill-209" fill="#484948"></path>
                <polygon id="Fill-210" fill="#484948" points="339.3779 39.8589 337.2759 39.8589 335.1939 50.0499 332.3239 50.0499 334.4429 39.8589 332.3579 39.8589 332.7489 37.9419 339.7639 37.9419"></polygon>
                <polygon id="Fill-211" fill="#484948" points="341.2734 50.0498 338.4014 50.0498 340.9054 37.9418 343.7684 37.9418"></polygon>
                <path d="M349.6279,39.6469 C348.7459,39.6469 348.1319,40.4229 347.6409,41.4609 C347.0729,42.6359 346.4799,45.0139 346.4799,46.3679 C346.4799,47.3729 346.7919,48.1099 347.7459,48.1099 C348.6459,48.1099 349.2569,47.3389 349.7329,46.2649 C350.2749,45.0279 350.8359,42.6919 350.8359,41.3859 C350.8359,40.3839 350.5399,39.6469 349.6279,39.6469 M351.7549,48.0459 C350.7669,49.3739 349.3709,50.2229 347.4649,50.2229 C344.8909,50.2229 343.6799,48.4839 343.6799,45.9659 C343.6799,43.9929 344.4189,41.5139 345.5719,39.9619 C346.6029,38.6249 348.0119,37.7659 349.8539,37.7659 C352.5089,37.7659 353.6059,39.5409 353.6059,41.9299 C353.6059,43.8869 352.8989,46.4769 351.7549,48.0459" id="Fill-212" fill="#484948"></path>
                <path d="M362.54,50.0498 L360.446,50.0498 L357.809,43.2498 C357.563,42.6168 357.412,41.9878 357.412,41.9878 L357.379,41.9878 C357.379,41.9878 357.307,42.6358 357.158,43.3058 L355.773,50.0498 L353.382,50.0498 L355.869,37.9418 L358.3,37.9418 L360.754,44.1348 C360.996,44.7498 361.152,45.3078 361.152,45.3078 L361.194,45.3078 C361.194,45.3078 361.265,44.7358 361.39,44.0988 L362.66,37.9418 L365.044,37.9418 L362.54,50.0498 Z" id="Fill-213" fill="#484948"></path>
                <path d="M370.3525,41.8633 C370.3055,41.0533 370.3325,40.4003 370.3325,40.4003 L370.3055,40.4003 C370.3055,40.4003 370.1465,41.0533 369.7445,41.8633 L367.7855,45.8233 L370.6255,45.8233 L370.3525,41.8633 Z M370.8745,50.0503 L370.6575,47.4593 L367.0315,47.4593 L365.7105,50.0503 L363.0395,50.0503 L369.4795,37.9413 L372.2705,37.9413 L373.6855,50.0503 L370.8745,50.0503 Z" id="Fill-214" fill="#484948"></path>
                <polygon id="Fill-215" fill="#484948" points="380.3261 50.0498 374.3941 50.0498 376.8891 37.9418 379.7421 37.9418 377.6571 48.1268 380.7301 48.1268"></polygon>
                <path d="M166.5493,58.834 C166.1773,58.834 165.7763,58.909 165.5863,58.976 L164.7013,63.286 C164.9133,63.322 165.1423,63.322 165.3653,63.322 C166.4573,63.322 167.1403,62.954 167.5653,62.214 C167.8863,61.687 168.0983,60.821 168.0983,60.21 C168.0983,59.325 167.6433,58.834 166.5493,58.834 M169.6753,63.286 C168.7823,64.344 167.3583,64.994 165.2793,64.994 C164.9613,64.994 164.6483,64.975 164.3473,64.944 L163.4173,69.499 L160.6143,69.499 L163.0153,57.924 C163.9753,57.497 165.2653,57.218 166.8113,57.218 C169.6283,57.218 170.8083,58.519 170.8083,60.227 C170.8083,61.301 170.3673,62.48 169.6753,63.286" id="Fill-216" fill="#484948"></path>
                <path d="M175.9809,58.8476 C175.6069,58.8476 175.3249,58.9096 175.0569,58.9936 L174.1639,63.3756 C174.2839,63.4106 174.5319,63.4476 174.7939,63.4476 C175.6569,63.4476 176.3829,63.1096 176.8799,62.5096 C177.3489,61.9156 177.5879,60.9996 177.5879,60.2436 C177.5879,59.3106 177.0859,58.8476 175.9809,58.8476 M179.4589,62.7226 C178.7329,63.5516 177.7139,64.0786 176.7739,64.1846 L176.7739,64.2236 L178.9149,69.4986 L175.8719,69.4986 L174.0409,64.0976 L174.0039,64.0976 L172.8819,69.4986 L170.0799,69.4986 L172.4689,57.9236 C173.4939,57.4826 174.7639,57.2176 176.2239,57.2176 C179.0209,57.2176 180.3909,58.4116 180.3909,60.1906 C180.3909,61.1226 180.0589,62.0156 179.4589,62.7226" id="Fill-217" fill="#484948"></path>
                <path d="M186.4228,59.0991 C185.5408,59.0991 184.9298,59.8751 184.4298,60.9131 C183.8718,62.0881 183.2718,64.4671 183.2718,65.8201 C183.2718,66.8251 183.5928,67.5591 184.5388,67.5591 C185.4378,67.5591 186.0538,66.7921 186.5288,65.7171 C187.0758,64.4831 187.6338,62.1471 187.6338,60.8441 C187.6338,59.8411 187.3388,59.0991 186.4228,59.0991 M188.5528,67.4921 C187.5648,68.8291 186.1578,69.6751 184.2568,69.6751 C181.6938,69.6751 180.4718,67.9331 180.4718,65.4181 C180.4718,63.4481 181.2168,60.9631 182.3788,59.4141 C183.3998,58.0771 184.8038,57.2181 186.6518,57.2181 C189.3068,57.2181 190.4028,58.9931 190.4028,61.3821 C190.4028,63.3391 189.6888,65.9291 188.5528,67.4921" id="Fill-218" fill="#484948"></path>
                <path d="M196.0244,59.063 C195.7044,59.063 195.3914,59.116 195.1454,59.202 L193.4184,67.576 C193.5994,67.654 193.8804,67.705 194.2124,67.705 C195.1904,67.705 195.9194,67.263 196.5334,66.191 C197.2224,64.975 197.8414,62.496 197.8414,61.086 C197.8414,59.719 197.2724,59.063 196.0244,59.063 M198.6124,67.596 C197.6044,68.813 196.0944,69.675 193.7924,69.675 C192.3324,69.675 191.0564,69.396 190.2894,68.969 L192.5784,57.924 C193.5804,57.483 194.7104,57.218 196.1954,57.218 C199.3544,57.218 200.6194,59.032 200.6194,61.527 C200.6194,63.459 199.8454,66.108 198.6124,67.596" id="Fill-219" fill="#484948"></path>
                <path d="M209.459,65.9292 C208.965,68.2792 206.994,69.6752 204.555,69.6752 C202.453,69.6752 200.954,68.5672 200.954,66.7002 C200.954,66.4372 200.999,66.1722 201.052,65.8902 L202.805,57.3932 L205.655,57.3932 L203.918,65.8732 C203.88,66.0692 203.844,66.2612 203.844,66.4202 C203.844,67.1382 204.284,67.4922 204.968,67.4922 C205.867,67.4922 206.626,66.9312 206.835,65.8732 L208.583,57.3932 L211.234,57.3932 L209.459,65.9292 Z" id="Fill-220" fill="#484948"></path>
                <path d="M218.8066,59.5595 C218.6006,59.4145 218.1366,59.2575 217.5876,59.2575 C216.7366,59.2575 216.0526,59.6965 215.4916,60.3855 C214.5676,61.5435 213.9896,63.5845 213.9896,65.0805 C213.9896,66.5235 214.4966,67.4415 215.7316,67.4415 C216.3626,67.4415 216.9756,67.2495 217.2716,67.0735 L217.5296,68.9685 C216.9426,69.3735 215.9496,69.6755 214.8496,69.6755 C212.2336,69.6755 211.0506,67.7245 211.0506,65.2565 C211.0506,62.9345 212.0156,60.1735 213.7246,58.6275 C214.6676,57.7425 215.8986,57.2175 217.3086,57.2175 C218.3996,57.2175 219.3176,57.5165 219.7866,57.9235 L218.8066,59.5595 Z" id="Fill-221" fill="#484948"></path>
                <polygon id="Fill-222" fill="#484948" points="227.167 59.311 225.067 59.311 222.978 69.499 220.105 69.499 222.21 59.311 220.142 59.311 220.529 57.394 227.552 57.394"></polygon>
                <path d="M233.9717,59.6264 C233.6197,59.3954 233.0397,59.1684 232.2997,59.1684 C231.1217,59.1684 230.4837,60.0704 230.4837,60.9634 C230.4837,62.6324 233.7427,62.6184 233.7427,65.2954 C233.7427,67.0484 232.4927,69.6754 228.9197,69.6754 C227.4907,69.6754 226.4417,69.4124 225.8217,68.9684 L226.8607,67.0844 C227.1777,67.3134 227.8307,67.5594 228.6047,67.5594 C229.7877,67.5594 230.6417,66.7924 230.6417,65.7034 C230.6417,64.0624 227.6297,64.0624 227.6297,61.4214 C227.6297,59.6654 228.9867,57.2174 232.1777,57.2174 C233.4187,57.2174 234.3287,57.5164 234.9237,57.9234 L233.9717,59.6264 Z" id="Fill-223" fill="#484948"></path>
                <path d="M247.8642,61.3178 C247.8002,60.5058 247.8392,59.8638 247.8392,59.8638 L247.8002,59.8638 C247.8002,59.8638 247.6432,60.5058 247.2392,61.3178 L245.2852,65.2788 L248.1212,65.2788 L247.8642,61.3178 Z M248.3692,69.4988 L248.1542,66.9148 L244.5252,66.9148 L243.2172,69.4988 L240.5432,69.4988 L246.9732,57.3938 L249.7672,57.3938 L251.1822,69.4988 L248.3692,69.4988 Z" id="Fill-224" fill="#484948"></path>
                <path d="M259.9502,59.6264 C259.6012,59.3974 259.0202,59.1714 258.2752,59.1714 C257.0972,59.1714 256.4642,60.0704 256.4642,60.9694 C256.4642,62.6414 259.7262,62.6244 259.7262,65.2954 C259.7262,67.0564 258.4712,69.6754 254.8982,69.6754 C253.4772,69.6754 252.4142,69.4124 251.8032,68.9684 L252.8412,67.0874 C253.1562,67.3194 253.8062,67.5644 254.5832,67.5644 C255.7552,67.5644 256.6262,66.7924 256.6262,65.7034 C256.6262,64.0624 253.6192,64.0624 253.6192,61.4214 C253.6192,59.6654 254.9682,57.2174 258.1502,57.2174 C259.4002,57.2174 260.2992,57.5224 260.8962,57.9234 L259.9502,59.6264 Z" id="Fill-225" fill="#484948"></path>
                <path d="M268.1367,59.6264 C267.7877,59.3974 267.2067,59.1714 266.4707,59.1714 C265.2817,59.1714 264.6587,60.0704 264.6587,60.9694 C264.6587,62.6414 267.9167,62.6244 267.9167,65.2954 C267.9167,67.0564 266.6577,69.6754 263.0847,69.6754 C261.6607,69.6754 260.6037,69.4124 259.9947,68.9684 L261.0247,67.0874 C261.3427,67.3194 261.9927,67.5644 262.7727,67.5644 C263.9477,67.5644 264.8097,66.7924 264.8097,65.7034 C264.8097,64.0624 261.7977,64.0624 261.7977,61.4214 C261.7977,59.6654 263.1597,57.2174 266.3447,57.2174 C267.5957,57.2174 268.4907,57.5224 269.0827,57.9234 L268.1367,59.6264 Z" id="Fill-226" fill="#484948"></path>
                <path d="M274.9814,59.1015 C274.1014,59.1015 273.4824,59.8745 272.9884,60.9135 C272.4214,62.0915 271.8304,64.4665 271.8304,65.8205 C271.8304,66.8255 272.1454,67.5645 273.0944,67.5645 C273.9994,67.5645 274.6154,66.7915 275.0864,65.7175 C275.6284,64.4835 276.1924,62.1465 276.1924,60.8465 C276.1924,59.8415 275.8964,59.1015 274.9814,59.1015 M277.1024,67.4955 C276.1204,68.8315 274.7184,69.6755 272.8124,69.6755 C270.2364,69.6755 269.0274,67.9355 269.0274,65.4185 C269.0274,63.4475 269.7694,60.9695 270.9254,59.4145 C271.9534,58.0775 273.3624,57.2175 275.2074,57.2175 C277.8624,57.2175 278.9564,58.9955 278.9564,61.3875 C278.9564,63.3385 278.2504,65.9295 277.1024,67.4955" id="Fill-227" fill="#484948"></path>
                <path d="M287.3183,59.5595 C287.1123,59.4145 286.6423,59.2575 286.1043,59.2575 C285.2393,59.2575 284.5543,59.6965 284.0103,60.3885 C283.0763,61.5465 282.4983,63.5895 282.4983,65.0835 C282.4983,66.5295 283.0063,67.4445 284.2393,67.4445 C284.8683,67.4445 285.4933,67.2495 285.7803,67.0735 L286.0263,68.9685 C285.4543,69.3785 284.4683,69.6755 283.3603,69.6755 C280.7423,69.6755 279.5613,67.7265 279.5613,65.2655 C279.5613,62.9345 280.5243,60.1765 282.2273,58.6275 C283.1873,57.7455 284.4133,57.2175 285.8283,57.2175 C286.9143,57.2175 287.8263,57.5215 288.3093,57.9235 L287.3183,59.5595 Z" id="Fill-228" fill="#484948"></path>
                <polygon id="Fill-229" fill="#484948" points="290.2412 69.499 287.3692 69.499 289.8702 57.394 292.7362 57.394"></polygon>
                <path d="M298.3916,61.3178 C298.3406,60.5058 298.3696,59.8638 298.3696,59.8638 L298.3406,59.8638 C298.3406,59.8638 298.1736,60.5058 297.7746,61.3178 L295.8266,65.2788 L298.6566,65.2788 L298.3916,61.3178 Z M298.8996,69.4988 L298.6846,66.9148 L295.0646,66.9148 L293.7466,69.4988 L291.0696,69.4988 L297.5096,57.3938 L300.3086,57.3938 L301.7186,69.4988 L298.8996,69.4988 Z" id="Fill-230" fill="#484948"></path>
                <polygon id="Fill-231" fill="#484948" points="309.9023 59.3139 307.8173 59.3139 305.7183 69.4989 302.8573 69.4989 304.9653 59.3139 302.8903 59.3139 303.2783 57.3939 310.2913 57.3939"></polygon>
                <polygon id="Fill-232" fill="#484948" points="311.8457 69.499 308.9697 69.499 311.4657 57.394 314.3457 57.394"></polygon>
                <path d="M320.0293,59.1015 C319.1443,59.1015 318.5243,59.8745 318.0393,60.9135 C317.4753,62.0915 316.8833,64.4665 316.8833,65.8205 C316.8833,66.8255 317.2043,67.5645 318.1393,67.5645 C319.0473,67.5645 319.6583,66.7915 320.1353,65.7175 C320.6763,64.4835 321.2403,62.1465 321.2403,60.8465 C321.2403,59.8415 320.9473,59.1015 320.0293,59.1015 M322.1623,67.4955 C321.1743,68.8315 319.7693,69.6755 317.8663,69.6755 C315.2933,69.6755 314.0783,67.9355 314.0783,65.4185 C314.0783,63.4475 314.8173,60.9695 315.9763,59.4145 C317.0043,58.0775 318.4163,57.2175 320.2553,57.2175 C322.9153,57.2175 324.0043,58.9955 324.0043,61.3875 C324.0043,63.3385 323.3003,65.9295 322.1623,67.4955" id="Fill-233" fill="#484948"></path>
                <path d="M332.7295,69.499 L330.6385,69.499 L327.9845,62.714 C327.7445,62.078 327.5825,61.441 327.5825,61.441 L327.5485,61.441 C327.5485,61.441 327.4815,62.091 327.3395,62.761 L325.9525,69.499 L323.5575,69.499 L326.0635,57.394 L328.4815,57.394 L330.9315,63.59 C331.1855,64.199 331.3335,64.768 331.3335,64.768 L331.3615,64.768 C331.3615,64.768 331.4375,64.187 331.5625,63.557 L332.8355,57.394 L335.2215,57.394 L332.7295,69.499 Z" id="Fill-234" fill="#484948"></path>
                <path d="M32.0303,52.9077 C26.4083,53.4437 22.5953,54.7757 21.6913,59.9897 C21.0353,63.8077 22.8723,65.4497 26.5203,65.4577123 C27.8713,65.4597 29.0883,65.2177 29.9813,64.7927 L32.0303,52.9077 Z M25.1503,70.6687624 C15.9773,70.6577 11.8713,67.1327 13.0443,60.3407 C14.4983,51.9087 23.0983,49.4357 32.7863,48.5397 L33.0463,47.0267 C33.6353,43.6267 31.5703,42.6587 28.2123,42.6507 C25.1503,42.6507 21.8623,43.6717 19.6403,44.6407 L18.5683,39.2397 C20.9663,38.2737 25.3453,36.7607 30.9363,36.7716404 C38.1073,36.7827 42.8683,39.8817 41.3393,48.7327 L37.9723,68.2597 C35.0813,69.7117 30.6153,70.6777 25.1503,70.6687624 L25.1503,70.6687624 Z" id="Fill-235" fill="#FFFFFE"></path>
                <path d="M61.3721,42.3929836 C60.1441,42.391 59.2891,42.572 58.4691,42.876 L54.7431,64.525 C55.2871,64.768 56.0741,64.947 57.0821,64.9520017 C61.9581,64.955 64.8131,61.017 66.0801,53.684 C67.3451,46.343 66.2591,42.399 61.3721,42.3929836 M58.2901,70.526 C56.3531,70.526 54.6871,70.289 53.7961,69.979 L51.5301,83.137 L42.3501,83.129 L49.9191,39.225 C52.8641,37.83 56.8111,36.803 62.4601,36.8109536 C71.9281,36.828 77.0451,42.597 75.1551,53.572 C73.3541,64.062 66.5241,70.546 58.2901,70.526" id="Fill-236" fill="#FFFFFE"></path>
                <path d="M94.8979,42.435 C93.6639,42.435 92.8129,42.614 91.9919,42.915 L88.2629,64.57 C88.8069,64.812 89.6029,64.9970122 90.5989,64.9970122 C95.4809,65.005 98.3339,61.067 99.6009,53.726 C100.8649,46.388 99.7799,42.449 94.8979,42.435 M91.8139,70.58 C89.8759,70.574 88.2129,70.331 87.3219,70.024 L85.0559,83.185 L75.8809,83.176 L83.4419,39.267 C86.3869,37.88 90.3369,36.85 95.9749,36.8609127 C105.4429,36.87 110.5709,42.639 108.6779,53.617 C106.8669,64.106 100.0469,70.591 91.8139,70.58" id="Fill-237" fill="#FFFFFE"></path>
                <path d="M130.8379,53.042 C125.2159,53.581 121.3979,54.909 120.4959,60.124 C119.8429,63.945 121.6799,65.583 125.3219,65.5860284 C126.6729,65.589 127.8869,65.354 128.7949,64.927 L130.8379,53.042 Z M123.9519,70.803093 C114.7769,70.792 110.6769,67.269 111.8489,60.475 C113.2999,52.048 121.8999,49.575 131.5909,48.674 L131.8479,47.158 C132.4319,43.761 130.3719,42.787 127.0199,42.784 C123.9579,42.778 120.6579,43.809 118.4389,44.774 L117.3699,39.376 C119.7649,38.41 124.1529,36.897 129.7349,36.90596 C136.9089,36.912 141.6739,40.015 140.1469,48.869 L136.7809,68.394 C133.8829,69.848 129.4229,70.814 123.9519,70.803093 L123.9519,70.803093 Z" id="Fill-238" fill="#FFFFFE"></path>
            </g>
        </g>
    </g>
</svg>