<svg width="71" height="68" xmlns="http://www.w3.org/2000/svg" xmlns:xlink="http://www.w3.org/1999/xlink"><defs><path id="a" d="M0 0h70.3v67.3H0z"/><path id="c" d="M0 0h70.3v67.3H0z"/><path id="e" d="M0 0h70.3v67.3H0z"/></defs><g fill="none" fill-rule="evenodd"><g transform="translate(.6 .7)"><mask id="b" fill="#fff"><use xlink:href="#a"/></mask><path d="M66.2 25c-.4.3-1.6 2-1.3 2.4.8 1.2 2.5 4.2 2.4 7.5 0 2.4 0 3.4-1.6 6.7l-1 2a13 13 0 0 1-8.2 7.5c-3.5 1.4-7.8-.4-9.4-1.4-.7-.6-1.9-3.5-2.5-5a8.8 8.8 0 0 0-1.2-2.7c-.3-.3-.7-.4-1.2-.4-1 0-1.9 1-3 2.4-.2-.2-.8-.8-1.7-2.7a7 7 0 0 0-7-3.7c-2 .3-7.4 2.4-7.6 2.5a1 1 0 0 0-.5 1.3c.2.6.7 1.8 1.3 1.6 1.4-.6 5.6-2.2 7.2-2.4a5 5 0 0 1 4.8 2.6C37 45.7 38 46.9 39 47c.4 0 1.1 0 1.8-.7.2-.4.9-1.1 1.3-1.5l.6 1.5c1.2 3 2.1 5.2 3.3 6 1 .8 4.3 2.3 7.8 2.3a14.9 14.9 0 0 0 12.8-9.2l.9-1.9c1.7-3.6 2.7-5.7 2.8-8.5 0-3.9-1.9-7.4-2.7-8.7-.3-.4-1-1.6-1.4-1.3Z" fill="#FFF" fill-rule="nonzero" mask="url(#b)"/></g><g transform="translate(.6 .7)"><mask id="d" fill="#fff"><use xlink:href="#c"/></mask><path d="M8.2 45.5c-.7 0-1-.3-1-.4-.5-.6.8-1.6 1-3.1l.1-.3c.4-2.2-1.2-5.1-2.8-8-.9-1.5-1.7-2.9-2-4-1-2.8-.2-4.7.7-6.4.5-.9 3-1.5 5.3-2.6 2.6-1.2 4.8-2.2 5.7-3.1l2.8-3.3c1.9-2.2 5-5.9 5.8-6.4.4-.2 1.4.1 2.2.4.9.3 1.6.5 2.3.4 1.6-.5 6-5.3 6-5.4.5-.5 2.6-.3 4 .3s1.1 1 .6 2.7c-.7 2.6 1.7 3.7 3.1 4.9.5.3 1 .7 1.4 1.2.9.9 2 1.3 3.2 1.3 1.8 0 3.5-1 4.3-2 .6-.5 1.5-2.5 2.3-4.5.4 1.8 1 2.7 2 2.7.8 0 1.6.3 2.2.4l.6 7 .2.3 3.6 5.3c.3.5 1.9 1.6 2.4 1.3.4-.3.5-2 .2-2.4L61 16.6l-1.7-8.3a1 1 0 0 0-.7-.7S57 7 55.5 7c-.3-.7-.6-3-.6-5.3a1 1 0 0 0-2-.4c-1.2 3.5-3 7.5-3.5 8.1-.4.5-1.6 1.2-2.8 1.3-.7 0-1.3-.2-1.7-.7l-1.6-1.4c-1.4-1.1-1.8-1.5-1.4-2.7 1-3.5-1.6-4.6-2.9-5.1-1.2-.6-4.7-1.6-6.2.2a31.6 31.6 0 0 1-5 4.7l-1.2-.3c-1.2-.4-2.6-.9-3.8-.2a55 55 0 0 0-6.3 6.8l-2.8 3.2c-.6.6-3 1.7-5 2.7-4 1.9-6.5 3.1-7.2 4.4-1.1 2-2.2 4.5-1 8 .5 1.3 1.3 2.8 2.2 4.4 1.3 2.3 3 5.2 2.7 6.6l-.1.3c-.4 2.2-.8 4.4.4 5.8.5.7 1.4 1 2.5 1.1 3.3 0 10.1-3.7 10.9-4.1.5-.3.7-2 .4-2.4a1 1 0 0 0-1.4-.4c-2 1.1-7.6 4-9.9 3.9Z" fill="#FFF" fill-rule="nonzero" mask="url(#d)"/></g><g transform="translate(.6 .7)"><mask id="f" fill="#fff"><use xlink:href="#e"/></mask><path d="M57 64c-.3-.2-1-.9-1.1-1.5l-.1-.4h2c-.1.7-.6 1.8-.8 2Zm-3-5a1 1 0 0 0-.5.2c-.3.2-1 .8-.9 2a9 9 0 0 0 3.9 5.9 1.8 1.8 0 0 0 1.7-.1c1.7-1 2.7-4.8 2.7-6.1 0-.5-.1-1-.5-1.3-1.3-1.2-5-.8-6.5-.6Z" fill="#FFF" fill-rule="nonzero" mask="url(#f)"/></g></g></svg>