<svg width="100" height="100" fill="none" xmlns="http://www.w3.org/2000/svg"><circle cx="50" cy="50" r="50" fill="#214FFF"/><g clip-path="url(#a)" stroke="#fff" stroke-width="2" stroke-miterlimit="10" stroke-linecap="round"><path d="M25.2 33.3A30 30 0 0 1 80 50M74.4 67.5A29.9 29.9 0 0 1 20.3 50M75.5 51.9l2.5 6.3c.2.7 1 .8 1.6.2l4.3-5.3c.4-.6.1-1.5-.5-1.6l-6.8-1c-.8 0-1.4.7-1.1 1.4ZM24.6 48.7l-2.5-6.4c-.2-.6-1-.7-1.6-.2l-4.3 5.4c-.4.5-.1 1.4.6 1.5l6.7 1.1c1 0 1.5-.8 1.1-1.4ZM50.4 68.6V51"/><path d="M50.4 50.4c-.6-8.6 4.8-12.6 12-12.3 3.6 0 5.6.5 6.6.8.7.3.8 1.1.3 1.6-1.3 1.5-4 4.8-5 6.5-3.7 5.8-8 5.8-9.9 5.4"/><path d="M51 51c2-2.8 5.6-5 9-7.1M50.4 50.8c0-10.1-5.7-9.6-10.4-11.9a55 55 0 0 1-5.4-3 .9.9 0 0 0-1.3.6c-.4 3.3-.4 10.8 5.8 14.3a13 13 0 0 0 7.4 1.5"/><path d="M41.2 44.7c2.5.6 5.7 2.8 9.2 6"/></g><defs><clipPath id="a"><path fill="#fff" transform="translate(15 19)" d="M0 0h70.2v62H0z"/></clipPath></defs></svg>